<mxfile host="app.diagrams.net" modified="2023-07-17T14:34:27.136Z" agent="Mozilla/5.0 (Windows NT 10.0; Win64; x64) AppleWebKit/537.36 (KHTML, like Gecko) Chrome/114.0.0.0 Safari/537.36" etag="hc1dvC90JnMKS9iAkRQJ" version="21.6.2" type="device">
  <diagram name="Page-1" id="OjM-joLUxrp6shS8A-66">
    <mxGraphModel dx="880" dy="484" grid="1" gridSize="10" guides="1" tooltips="1" connect="1" arrows="1" fold="1" page="1" pageScale="1" pageWidth="850" pageHeight="1100" math="0" shadow="0">
      <root>
        <mxCell id="0" />
        <mxCell id="1" parent="0" />
        <mxCell id="Gf29hxZvgFmMWTZUsbzp-3" style="edgeStyle=orthogonalEdgeStyle;rounded=0;orthogonalLoop=1;jettySize=auto;html=1;entryX=0.5;entryY=0;entryDx=0;entryDy=0;" edge="1" parent="1" source="Gf29hxZvgFmMWTZUsbzp-1" target="Gf29hxZvgFmMWTZUsbzp-2">
          <mxGeometry relative="1" as="geometry" />
        </mxCell>
        <mxCell id="Gf29hxZvgFmMWTZUsbzp-1" value="Mulai" style="rounded=1;whiteSpace=wrap;html=1;arcSize=50;" vertex="1" parent="1">
          <mxGeometry x="360" y="100" width="80" height="40" as="geometry" />
        </mxCell>
        <mxCell id="Gf29hxZvgFmMWTZUsbzp-5" style="edgeStyle=orthogonalEdgeStyle;rounded=0;orthogonalLoop=1;jettySize=auto;html=1;entryX=0.5;entryY=0;entryDx=0;entryDy=0;" edge="1" parent="1" source="Gf29hxZvgFmMWTZUsbzp-2" target="Gf29hxZvgFmMWTZUsbzp-4">
          <mxGeometry relative="1" as="geometry" />
        </mxCell>
        <mxCell id="Gf29hxZvgFmMWTZUsbzp-2" value="Pengumpulan Data" style="shape=parallelogram;perimeter=parallelogramPerimeter;whiteSpace=wrap;html=1;fixedSize=1;" vertex="1" parent="1">
          <mxGeometry x="317.5" y="170" width="165" height="40" as="geometry" />
        </mxCell>
        <mxCell id="Gf29hxZvgFmMWTZUsbzp-8" style="edgeStyle=orthogonalEdgeStyle;rounded=0;orthogonalLoop=1;jettySize=auto;html=1;" edge="1" parent="1" source="Gf29hxZvgFmMWTZUsbzp-4" target="Gf29hxZvgFmMWTZUsbzp-7">
          <mxGeometry relative="1" as="geometry" />
        </mxCell>
        <mxCell id="Gf29hxZvgFmMWTZUsbzp-4" value="Identifikasi Masalah" style="rounded=0;whiteSpace=wrap;html=1;" vertex="1" parent="1">
          <mxGeometry x="315" y="240" width="170" height="40" as="geometry" />
        </mxCell>
        <mxCell id="Gf29hxZvgFmMWTZUsbzp-10" style="edgeStyle=orthogonalEdgeStyle;rounded=0;orthogonalLoop=1;jettySize=auto;html=1;entryX=0.5;entryY=0;entryDx=0;entryDy=0;" edge="1" parent="1" source="Gf29hxZvgFmMWTZUsbzp-7" target="Gf29hxZvgFmMWTZUsbzp-9">
          <mxGeometry relative="1" as="geometry" />
        </mxCell>
        <mxCell id="Gf29hxZvgFmMWTZUsbzp-7" value="Analisis Kebutuhan" style="rounded=0;whiteSpace=wrap;html=1;" vertex="1" parent="1">
          <mxGeometry x="315" y="310" width="170" height="40" as="geometry" />
        </mxCell>
        <mxCell id="Gf29hxZvgFmMWTZUsbzp-12" style="edgeStyle=orthogonalEdgeStyle;rounded=0;orthogonalLoop=1;jettySize=auto;html=1;" edge="1" parent="1" source="Gf29hxZvgFmMWTZUsbzp-9" target="Gf29hxZvgFmMWTZUsbzp-11">
          <mxGeometry relative="1" as="geometry" />
        </mxCell>
        <mxCell id="Gf29hxZvgFmMWTZUsbzp-9" value="Perancangan Sistem Menggunakan Scrum" style="rounded=0;whiteSpace=wrap;html=1;" vertex="1" parent="1">
          <mxGeometry x="315" y="380" width="170" height="40" as="geometry" />
        </mxCell>
        <mxCell id="Gf29hxZvgFmMWTZUsbzp-14" style="edgeStyle=orthogonalEdgeStyle;rounded=0;orthogonalLoop=1;jettySize=auto;html=1;entryX=0.5;entryY=0;entryDx=0;entryDy=0;" edge="1" parent="1" source="Gf29hxZvgFmMWTZUsbzp-11" target="Gf29hxZvgFmMWTZUsbzp-13">
          <mxGeometry relative="1" as="geometry" />
        </mxCell>
        <mxCell id="Gf29hxZvgFmMWTZUsbzp-11" value="Pengujian" style="rounded=0;whiteSpace=wrap;html=1;" vertex="1" parent="1">
          <mxGeometry x="315" y="450" width="170" height="40" as="geometry" />
        </mxCell>
        <mxCell id="Gf29hxZvgFmMWTZUsbzp-17" style="edgeStyle=orthogonalEdgeStyle;rounded=0;orthogonalLoop=1;jettySize=auto;html=1;" edge="1" parent="1" source="Gf29hxZvgFmMWTZUsbzp-13" target="Gf29hxZvgFmMWTZUsbzp-15">
          <mxGeometry relative="1" as="geometry" />
        </mxCell>
        <mxCell id="Gf29hxZvgFmMWTZUsbzp-13" value="Penarikan Kesimpulan" style="rounded=0;whiteSpace=wrap;html=1;" vertex="1" parent="1">
          <mxGeometry x="315" y="520" width="170" height="40" as="geometry" />
        </mxCell>
        <mxCell id="Gf29hxZvgFmMWTZUsbzp-15" value="Selesai" style="rounded=1;whiteSpace=wrap;html=1;arcSize=50;" vertex="1" parent="1">
          <mxGeometry x="360" y="580" width="80" height="40" as="geometry" />
        </mxCell>
      </root>
    </mxGraphModel>
  </diagram>
</mxfile>
